<?xml version="1.0" encoding="UTF-8" standalone="no"?>
<svg
   xmlns:dc="http://purl.org/dc/elements/1.1/"
   xmlns:cc="http://creativecommons.org/ns#"
   xmlns:rdf="http://www.w3.org/1999/02/22-rdf-syntax-ns#"
   xmlns:svg="http://www.w3.org/2000/svg"
   xmlns="http://www.w3.org/2000/svg"
   xmlns:sodipodi="http://sodipodi.sourceforge.net/DTD/sodipodi-0.dtd"
   xmlns:inkscape="http://www.inkscape.org/namespaces/inkscape"
   width="52.916859mm"
   height="20.457592mm"
   viewBox="0 0 52.916859 20.457592"
   version="1.1"
   id="svg1129"
   sodipodi:docname="logo.svg"
   inkscape:version="1.0.2 (e86c8708, 2021-01-15)">
  <defs
     id="defs1124" />
  <sodipodi:namedview
     id="base"
     pagecolor="#ffffff"
     bordercolor="#666666"
     borderopacity="1.0"
     inkscape:pageopacity="0.0"
     inkscape:pageshadow="2"
     inkscape:zoom="5.4799802"
     inkscape:cx="100.00036"
     inkscape:cy="38.660017"
     inkscape:document-units="mm"
     inkscape:document-rotation="0"
     showgrid="false"
     inkscape:window-width="1251"
     inkscape:window-height="790"
     inkscape:window-x="0"
     inkscape:window-y="25"
     inkscape:window-maximized="0"
     inkscape:current-layer="svg1129" />
  <metadata
     id="metadata1127">
    <rdf:RDF>
      <cc:Work
         rdf:about="">
        <dc:format>image/svg+xml</dc:format>
        <dc:type
           rdf:resource="http://purl.org/dc/dcmitype/StillImage" />
      </cc:Work>
    </rdf:RDF>
  </metadata>
  <g
     aria-label="Joshua
Lewandowski"
     transform="scale(0.94529725,1.0578683)"
     id="text1133"
     style="font-style:normal;font-variant:normal;font-weight:bold;font-stretch:normal;font-size:10.0044px;line-height:1.25;font-family:'Songti SC';-inkscape-font-specification:'Songti SC Bold';fill:#000000;fill-opacity:1;stroke:none;stroke-width:0.25011">
    <path
       d="m 3.8961581,0.54023782 -0.5402376,0.0900396 q -0.1400616,0.0200088 -0.1800792,0.100044 -0.040018,0.0800352 -0.040018,0.27011877 v 4.0117645 q 0,0.7703389 -0.1300572,1.4106205 Q 2.8857137,7.0631068 2.5955861,7.543318 2.3054585,7.9835116 1.8252473,8.293648 1.3450361,8.6037844 0.77478524,8.6037844 q -0.13005721,0 -0.27011881,-0.030013 -0.150066,-0.020009 -0.26011441,-0.080035 -0.1200528,-0.060026 -0.1900836,-0.1600704 -0.0700308,-0.09004 -0.050022,-0.2401056 0.0200088,-0.150066 0.1300572,-0.2601144 0.100044,-0.1100484 0.25011001,-0.1100484 0.150066,0 0.300132,0.080035 0.14006161,0.080035 0.32014077,0.2200968 0.09004,0.070031 0.1800792,0.080035 0.100044,0.010004 0.1900837,-0.020009 0.100044,-0.030013 0.1800792,-0.09004 0.09004,-0.060026 0.1400616,-0.1300572 Q 1.8352517,7.6833796 1.9052825,7.543318 1.9853177,7.4032564 2.0153309,7.1531464 2.0453441,6.893032 2.0453441,6.4528384 2.0553485,6.0126448 2.0553485,5.2222971 V 0.97042703 q 0,-0.1100484 -0.010004,-0.1700748 -0.010004,-0.0700308 -0.050022,-0.100044 Q 1.9553045,0.66029063 1.8652649,0.64028183 1.7852297,0.62027303 1.6251593,0.60026423 L 1.1549524,0.54023782 v -0.2200968 q 0.060026,0.0100044 0.2100925,0.0200088 0.150066,0 0.350154,0.0100044 0.200088,0 0.4301892,0 0.2401056,0 0.4902156,0 1.00044,0 1.2605544,-0.0300132 z"
       style="font-style:normal;font-variant:normal;font-weight:bold;font-stretch:normal;font-family:'Songti SC';-inkscape-font-specification:'Songti SC Bold';stroke-width:0.25011"
       id="path119" />
    <path
       d="m 6.6972339,6.7629748 q -0.4902156,0 -0.8803873,-0.150066 Q 5.426675,6.4528384 5.1565562,6.1727152 4.8864374,5.892592 4.7363714,5.5224291 4.5963098,5.1422619 4.5963098,4.6920639 q 0,-0.4602024 0.1400616,-0.8403696 Q 4.876433,3.4615227 5.1565562,3.1914039 5.4366794,2.9112807 5.8368554,2.7612147 6.2470359,2.6011443 6.7772691,2.6011443 q 0.5302332,0 0.9304092,0.1700748 0.400176,0.1600704 0.6702948,0.450198 0.2701188,0.2801232 0.4101804,0.6702948 0.1400616,0.3801672 0.1400616,0.8203608 0,0.450198 -0.1600704,0.8303653 Q 8.6080743,5.9126008 8.3179467,6.1827196 8.0278191,6.4528384 7.6176387,6.6129088 7.2074583,6.7629748 6.6972339,6.7629748 Z M 5.6367674,4.7620947 q 0,0.7903477 0.2901276,1.2505501 0.3001321,0.450198 0.8103565,0.450198 0.5102244,0 0.8203608,-0.4802112 0.3101364,-0.4802113 0.3101364,-1.2805633 0,-0.800352 -0.2901276,-1.2905676 -0.2901276,-0.50022 -0.8303652,-0.50022 -0.5402376,0 -0.8303653,0.4702068 -0.2801232,0.4702068 -0.2801232,1.3806072 z"
       style="font-style:normal;font-variant:normal;font-weight:bold;font-stretch:normal;font-family:'Songti SC';-inkscape-font-specification:'Songti SC Bold';stroke-width:0.25011"
       id="path121" />
    <path
       d="M 12.030986,3.8516943 Q 12.000973,3.7016283 11.920938,3.5415579 11.850907,3.3814875 11.730854,3.2514303 11.610801,3.1113687 11.450731,3.0213291 q -0.160071,-0.09004 -0.370163,-0.09004 -0.290128,0 -0.490216,0.1200528 -0.200088,0.1200528 -0.200088,0.4201848 0,0.2901276 0.270119,0.450198 0.280123,0.150066 0.780343,0.300132 0.620273,0.200088 0.860379,0.50022 0.240106,0.300132 0.240106,0.700308 0,0.3501541 -0.140062,0.6102685 -0.130057,0.25011 -0.360158,0.4201848 -0.220097,0.1600704 -0.520229,0.2401056 -0.290128,0.070031 -0.610269,0.070031 -0.360158,0 -0.680299,-0.060026 Q 9.9200576,6.6329176 9.6899564,6.5028604 L 9.5899124,5.3123367 h 0.2200968 q 0.1400616,0.5402377 0.4501978,0.8403697 0.310137,0.2901276 0.75033,0.2901276 0.320141,0 0.550242,-0.1600704 0.230101,-0.1700748 0.230101,-0.4902156 0,-0.2901277 -0.220096,-0.4602025 Q 11.350687,5.1622707 10.870476,5.0222091 10.160163,4.8221211 9.8700356,4.5319935 9.5899124,4.2418659 9.5899124,3.7516503 q 0,-0.2701188 0.1300572,-0.4802112 0.1300572,-0.2200968 0.3401494,-0.3601584 0.210093,-0.150066 0.490216,-0.2200968 0.280123,-0.080035 0.580255,-0.080035 0.310136,0 0.59026,0.060026 0.280123,0.060026 0.480211,0.1800792 l 0.06003,1.00044 z"
       style="font-style:normal;font-variant:normal;font-weight:bold;font-stretch:normal;font-family:'Songti SC';-inkscape-font-specification:'Songti SC Bold';stroke-width:0.25011"
       id="path123" />
    <path
       d="m 13.705003,1.1304974 q 0,-0.28012317 -0.16007,-0.39017157 -0.16007,-0.1200528 -0.510224,-0.20008801 v -0.1800792 q 0.100044,0 0.260114,-0.0300132 0.170075,-0.0300132 0.360158,-0.0700308 0.190084,-0.050022 0.380168,-0.11004841 Q 14.235237,0.08003541 14.395307,2.0980835e-7 h 0.240106 V 3.4915359 q 0.310136,-0.4101804 0.630277,-0.6202728 0.330145,-0.2200968 0.740326,-0.25011 0.08004,0 0.16007,0 0.08003,0 0.16007,0.010004 0.490216,0.040018 0.770339,0.3801672 0.280123,0.3401496 0.280123,0.9604224 v 2.0408977 q 0,0.100044 0.04002,0.1800792 0.04002,0.080035 0.210092,0.1300572 l 0.34015,0.100044 V 6.642922 q -0.310136,-0.020009 -0.59026,-0.030013 -0.270118,-0.010004 -0.450198,-0.010004 -0.170074,0 -0.470206,0.010004 -0.290128,0.010004 -0.600264,0.030013 V 6.4228252 l 0.350154,-0.1100484 q 0.140061,-0.050022 0.190083,-0.1200528 0.05002,-0.080035 0.05002,-0.25011 V 4.0517823 q 0,-0.3701628 -0.170075,-0.5802552 -0.170074,-0.2100924 -0.550242,-0.2100924 -0.380167,0 -0.650286,0.2301012 -0.260114,0.2301012 -0.440193,0.5102244 V 5.942614 q 0,0.1100484 0.04002,0.1900836 0.04002,0.080035 0.150066,0.1200528 L 15.35573,6.4228252 V 6.642922 q -0.160071,-0.020009 -0.470207,-0.030013 -0.310137,-0.010004 -0.690304,-0.010004 -0.370163,0 -0.66029,0.010004 -0.280124,0.010004 -0.440194,0.030013 V 6.4228252 l 0.400176,-0.1100484 q 0.130057,-0.040018 0.170075,-0.1200528 0.04002,-0.080035 0.04002,-0.200088 z"
       style="font-style:normal;font-variant:normal;font-weight:bold;font-stretch:normal;font-family:'Songti SC';-inkscape-font-specification:'Songti SC Bold';stroke-width:0.25011"
       id="path125" />
    <path
       d="m 18.349547,2.7912279 h 1.5907 v 2.4710868 q 0,0.4802113 0.16007,0.6802993 0.170075,0.200088 0.530233,0.200088 0.280124,0 0.510225,-0.09004 0.230101,-0.100044 0.460202,-0.3101364 V 3.3914919 q 0,-0.09004 -0.02001,-0.1400616 -0.02001,-0.060026 -0.100044,-0.100044 -0.08004,-0.050022 -0.240105,-0.080035 -0.160071,-0.030013 -0.440194,-0.060026 V 2.7912279 h 1.75077 v 2.8812673 q 0,0.1700748 0.01,0.2701188 0.02001,0.100044 0.08004,0.150066 0.07003,0.050022 0.200088,0.070031 0.130057,0.020009 0.360158,0.020009 0,0.050022 0,0.1100484 0.01,0.050022 0.01,0.100044 L 21.600977,6.7529704 V 5.992636 q -0.190083,0.1900836 -0.360158,0.3401496 -0.170075,0.1400616 -0.34015,0.2401056 -0.170075,0.09004 -0.360158,0.1400616 -0.180079,0.050022 -0.410181,0.050022 -0.57025,0 -0.850374,-0.3701628 Q 18.999833,6.0226492 18.999833,5.4123807 V 3.3814875 q 0,-0.09004 -0.03001,-0.1400616 -0.02001,-0.060026 -0.09004,-0.100044 -0.06003,-0.050022 -0.190083,-0.080035 -0.130058,-0.030013 -0.34015,-0.070031 z"
       style="font-style:normal;font-variant:normal;font-weight:bold;font-stretch:normal;font-family:'Songti SC';-inkscape-font-specification:'Songti SC Bold';stroke-width:0.25011"
       id="path127" />
    <path
       d="m 25.296977,6.7329616 q -0.410181,0 -0.710313,-0.1400616 -0.300132,-0.150066 -0.50022,-0.400176 -0.190083,-0.25011 -0.290127,-0.5902596 -0.09004,-0.3401497 -0.09004,-0.7303213 0,-0.5302332 0.170075,-0.9304092 0.170075,-0.4101804 0.440193,-0.6903036 0.280124,-0.2801232 0.640282,-0.4201848 0.370163,-0.1400616 0.760334,-0.1400616 0.240106,0 0.43019,0.040018 0.190083,0.040018 0.330145,0.09004 0.16007,0.050022 0.290128,0.1200528 l 0.610268,-0.3301452 0.09004,0.030013 q 0,0.7803432 0,1.550682 0.01,0.7603344 0.01,1.5406777 0,0.400176 0.34015,0.3801672 0.08003,0 0.130057,-0.020009 0.05002,-0.030013 0.09004,-0.050022 0.04002,-0.030013 0.08004,-0.070031 l 0.07003,0.100044 q -0.08004,0.1900836 -0.200088,0.3301452 -0.110048,0.1300572 -0.270118,0.2301012 -0.160071,0.100044 -0.400176,0.100044 -0.390172,0 -0.560247,-0.2401056 Q 26.587544,6.2527504 26.587544,5.8725832 V 5.6124688 q -0.06003,0.2100924 -0.16007,0.4201848 -0.100044,0.200088 -0.260114,0.3601584 -0.150066,0.150066 -0.370163,0.25011 -0.210093,0.09004 -0.50022,0.09004 z m 1.290567,-2.2609945 q 0,-0.2701188 -0.04002,-0.5202288 -0.03001,-0.25011 -0.130057,-0.4401936 -0.100044,-0.200088 -0.270119,-0.3201408 -0.170075,-0.1200528 -0.450198,-0.1200528 -0.170075,0 -0.360159,0.080035 -0.190083,0.080035 -0.350154,0.2601144 -0.16007,0.1800792 -0.260114,0.4802112 -0.100044,0.300132 -0.100044,0.7303212 0,0.3201408 0.06003,0.6102684 0.07003,0.2801232 0.190084,0.4902157 0.130057,0.2100924 0.310136,0.3401496 0.190084,0.1200528 0.430189,0.1200528 0.220097,0 0.400177,-0.1300572 0.180079,-0.1300572 0.300132,-0.3401496 0.130057,-0.2200969 0.200088,-0.5102245 0.07003,-0.2901276 0.07003,-0.6202728 z"
       style="font-style:normal;font-variant:normal;font-weight:bold;font-stretch:normal;font-family:'Songti SC';-inkscape-font-specification:'Songti SC Bold';stroke-width:0.25011"
       id="path129" />
    <path
       d="m 3.2558765,18.538154 q 0,0.130057 0.040018,0.200088 0.050022,0.06003 0.2401056,0.06003 h 0.950418 q 0.300132,0 0.5802552,-0.02001 0.2901277,-0.03001 0.5602465,-0.16007 0.2801232,-0.130057 0.5302332,-0.400176 0.2601144,-0.280123 0.50022,-0.770339 H 6.817443 l -0.2901276,1.700748 q -0.4201848,-0.02001 -1.1104884,-0.03001 -0.6802993,-0.01 -1.6707349,-0.01 -0.9904356,0 -1.6407216,0.01 -0.650286,0.01 -0.9704269,0.03001 v -0.200088 l 0.6502861,-0.110048 q 0.2701188,-0.03001 0.3201408,-0.110049 0.060026,-0.09004 0.060026,-0.300132 v -4.932169 q 0,-0.190083 -0.070031,-0.240105 -0.060026,-0.05002 -0.1900836,-0.08004 L 1.2750052,13.045738 v -0.220097 q 0.5402377,0.03001 1.6207129,0.03001 1.0804752,0 1.3405896,-0.03001 v 0.220097 l -0.7203168,0.130057 q -0.1400616,0.03001 -0.200088,0.08004 -0.060026,0.04002 -0.060026,0.240105 z"
       style="font-style:normal;font-variant:normal;font-weight:bold;font-stretch:normal;font-family:'Songti SC';-inkscape-font-specification:'Songti SC Bold';stroke-width:0.25011"
       id="path131" />
    <path
       d="M 10.728069,16.697344 H 8.1169208 q -0.020009,0.100044 -0.030013,0.150066 0,0.05002 0,0.150066 0,0.350154 0.100044,0.640282 0.100044,0.290127 0.2801232,0.50022 0.1800792,0.210092 0.4301892,0.330145 0.2601144,0.110048 0.5802552,0.110048 0.350154,0 0.6402818,-0.110048 0.300132,-0.120053 0.630277,-0.440194 l 0.04002,0.190084 q -0.140062,0.220097 -0.320141,0.41018 -0.170075,0.190084 -0.390172,0.34015 -0.2200966,0.140062 -0.5002198,0.220097 -0.2801232,0.08003 -0.6302772,0.08003 -0.400176,0 -0.7303212,-0.150066 Q 7.8868196,18.968343 7.646714,18.698224 7.4066083,18.418101 7.2665467,18.037934 7.1364895,17.657767 7.1364895,17.207569 q 0,-0.460203 0.1400616,-0.84037 0.150066,-0.380167 0.4101805,-0.66029 0.2601144,-0.280124 0.6302772,-0.43019 0.3701628,-0.16007 0.8203608,-0.16007 0.3901716,0 0.6802992,0.120053 0.2901272,0.120053 0.4802112,0.340149 0.200088,0.210093 0.300132,0.50022 0.110048,0.290128 0.130057,0.620273 z M 8.1669428,16.387208 H 9.347462 q 0.200088,0 0.300132,-0.05002 0.1100484,-0.05002 0.080035,-0.25011 -0.030013,-0.280123 -0.1700748,-0.480211 -0.1300572,-0.210093 -0.450198,-0.210093 -0.3601584,0 -0.600264,0.260115 -0.2401056,0.25011 -0.3401496,0.730321 z"
       style="font-style:normal;font-variant:normal;font-weight:bold;font-stretch:normal;font-family:'Songti SC';-inkscape-font-specification:'Songti SC Bold';stroke-width:0.25011"
       id="path133" />
    <path
       d="m 11.035548,15.266715 q 0.220097,0.03001 0.930409,0.03001 0.720317,0 1.020449,-0.03001 v 0.210092 q -0.230101,0.02001 -0.320141,0.09004 -0.08003,0.06003 0,0.230101 l 1.060467,2.421065 0.66029,-1.34059 -0.340149,-0.880387 q -0.110049,-0.280123 -0.190084,-0.350154 -0.08003,-0.08004 -0.170075,-0.100044 l -0.330145,-0.07003 v -0.210092 q 0.280123,0.03001 1.09048,0.03001 0.810356,0 1.07047,-0.03001 v 0.210092 l -0.280123,0.05002 q -0.25011,0.05002 -0.290127,0.130058 -0.04002,0.08004 0.02001,0.210092 l 0.920405,2.281003 0.860379,-1.970867 q 0.100044,-0.200088 0.01,-0.400176 -0.09004,-0.200088 -0.300132,-0.230101 l -0.41018,-0.07003 v -0.210092 q 0.220096,0.03001 0.840369,0.03001 0.320141,0 0.560247,0 0.25011,-0.01 0.390171,-0.03001 v 0.210092 l -0.25011,0.05002 q -0.310136,0.07003 -0.510224,0.560247 l -1.430629,3.25143 h -0.240106 l -0.880387,-2.110929 -1.040458,2.110929 h -0.260114 l -1.650726,-3.531553 q -0.130057,-0.270119 -0.380167,-0.300132 l -0.160071,-0.03001 z"
       style="font-style:normal;font-variant:normal;font-weight:bold;font-stretch:normal;font-family:'Songti SC';-inkscape-font-specification:'Songti SC Bold';stroke-width:0.25011"
       id="path135" />
    <path
       d="m 19.689042,19.238462 q -0.410181,0 -0.710313,-0.140062 -0.300132,-0.150066 -0.50022,-0.400176 -0.190083,-0.25011 -0.290127,-0.590259 -0.09004,-0.34015 -0.09004,-0.730322 0,-0.530233 0.170075,-0.930409 0.170075,-0.41018 0.440194,-0.690303 0.280123,-0.280124 0.640281,-0.420185 0.370163,-0.140062 0.760335,-0.140062 0.240105,0 0.430189,0.04002 0.190083,0.04002 0.330145,0.09004 0.16007,0.05002 0.290128,0.120053 l 0.610268,-0.330145 0.09004,0.03001 q 0,0.780343 0,1.550682 0.01,0.760335 0.01,1.540678 0,0.400176 0.34015,0.380167 0.08003,0 0.130057,-0.02001 0.05002,-0.03001 0.09004,-0.05002 0.04002,-0.03001 0.08004,-0.07003 l 0.07003,0.100044 q -0.08003,0.190084 -0.200088,0.330146 -0.110048,0.130057 -0.270118,0.230101 -0.160071,0.100044 -0.400176,0.100044 -0.390172,0 -0.560247,-0.240106 -0.170075,-0.240105 -0.170075,-0.620273 v -0.260114 q -0.06003,0.210092 -0.16007,0.420185 -0.100044,0.200088 -0.260114,0.360158 -0.150066,0.150066 -0.370163,0.25011 -0.210093,0.09004 -0.50022,0.09004 z m 1.290567,-2.260995 q 0,-0.270118 -0.04002,-0.520228 -0.03001,-0.25011 -0.130057,-0.440194 -0.100044,-0.200088 -0.270119,-0.320141 -0.170075,-0.120053 -0.450198,-0.120053 -0.170075,0 -0.360159,0.08004 -0.190083,0.08004 -0.350154,0.260114 -0.16007,0.180079 -0.260114,0.480211 -0.100044,0.300132 -0.100044,0.730321 0,0.320141 0.06003,0.610269 0.07003,0.280123 0.190084,0.490215 0.130057,0.210093 0.310136,0.34015 0.190084,0.120053 0.43019,0.120053 0.220096,0 0.400176,-0.130057 0.180079,-0.130058 0.300132,-0.34015 0.130057,-0.220097 0.200088,-0.510224 0.07003,-0.290128 0.07003,-0.620273 z"
       style="font-style:normal;font-variant:normal;font-weight:bold;font-stretch:normal;font-family:'Songti SC';-inkscape-font-specification:'Songti SC Bold';stroke-width:0.25011"
       id="path137" />
    <path
       d="m 27.893119,19.138418 q -0.520229,-0.03001 -1.110489,-0.03001 -0.590259,0 -1.110488,0.03001 v -0.210093 l 0.430189,-0.08004 q 0.220097,-0.03001 0.220097,-0.390171 v -1.690744 q 0,-0.240106 -0.03001,-0.430189 -0.02001,-0.200088 -0.100044,-0.330145 -0.07003,-0.130058 -0.210093,-0.200088 -0.140061,-0.07003 -0.370162,-0.07003 -0.270119,0 -0.550242,0.150066 -0.270119,0.150066 -0.50022,0.390171 v 2.291008 q 0,0.16007 0.240105,0.220097 l 0.410181,0.140061 v 0.210093 q -0.170075,-0.02001 -0.350154,-0.02001 -0.170075,-0.01 -0.480212,-0.01 h -0.32014 q -0.330146,0 -0.630278,0.01 -0.300132,0 -0.470206,0.02001 v -0.210093 l 0.470206,-0.100044 q 0.200088,-0.05002 0.200088,-0.300132 v -1.980871 q 0,-0.310136 -0.130057,-0.420185 -0.120053,-0.110048 -0.440193,-0.16007 v -0.180079 q 0.16007,-0.04002 0.340149,-0.100044 0.190084,-0.07003 0.360159,-0.170075 0.180079,-0.110048 0.330145,-0.25011 0.16007,-0.140062 0.25011,-0.330145 h 0.220097 v 0.940413 q 0.330145,-0.350154 0.720316,-0.550242 0.400176,-0.210092 0.75033,-0.210092 0.580256,0 0.900396,0.34015 0.330146,0.340149 0.330146,1.030453 v 1.940853 q 0,0.190084 0.05002,0.290128 0.05002,0.09004 0.200088,0.130057 l 0.380167,0.08004 z"
       style="font-style:normal;font-variant:normal;font-weight:bold;font-stretch:normal;font-family:'Songti SC';-inkscape-font-specification:'Songti SC Bold';stroke-width:0.25011"
       id="path139" />
    <path
       d="m 31.437177,13.656007 q 0,-0.190084 -0.02001,-0.310137 -0.02001,-0.120053 -0.100044,-0.190083 -0.08003,-0.08004 -0.240106,-0.130058 -0.150066,-0.06003 -0.420185,-0.130057 v -0.16007 q 0.160071,-0.01 0.360159,-0.03001 0.210092,-0.02001 0.41018,-0.05002 0.200088,-0.03001 0.390172,-0.06003 0.190083,-0.04002 0.320141,-0.09004 h 0.25011 v 5.862578 q 0,0.180079 0.01,0.280123 0.02001,0.100044 0.09004,0.150066 0.07003,0.04002 0.200088,0.05002 0.140061,0.01 0.380167,0.02001 v 0.220097 q -0.190084,0.04002 -0.420185,0.08004 -0.220097,0.03001 -0.450198,0.06003 -0.220097,0.03001 -0.420185,0.06003 -0.200088,0.02001 -0.340149,0.03001 v -0.580255 q -0.390172,0.230101 -0.710313,0.380167 -0.310136,0.150066 -0.720317,0.150066 -0.340149,0 -0.630277,-0.110048 -0.290127,-0.110049 -0.530233,-0.400176 -0.480211,-0.570251 -0.480211,-1.390612 0,-0.530233 0.170074,-0.940414 0.18008,-0.420184 0.470207,-0.710312 0.290128,-0.290128 0.650286,-0.440194 0.360159,-0.16007 0.740326,-0.16007 0.350154,0 0.600264,0.07003 0.260114,0.07003 0.440194,0.200088 z m 0,4.792107 v -1.770779 q 0,-0.210092 -0.03001,-0.420184 -0.02001,-0.220097 -0.120052,-0.390172 -0.09004,-0.170075 -0.280124,-0.280123 -0.190083,-0.110049 -0.520228,-0.110049 -0.240106,0 -0.440194,0.130058 -0.200088,0.130057 -0.350154,0.360158 -0.140062,0.230101 -0.220097,0.540238 -0.07003,0.310136 -0.07003,0.670294 0,0.690304 0.300132,1.120493 0.300132,0.420185 0.84037,0.420185 0.310136,0 0.520229,-0.07003 0.220097,-0.08004 0.370163,-0.200088 z"
       style="font-style:normal;font-variant:normal;font-weight:bold;font-stretch:normal;font-family:'Songti SC';-inkscape-font-specification:'Songti SC Bold';stroke-width:0.25011"
       id="path141" />
    <path
       d="m 35.674822,19.268475 q -0.490216,0 -0.880388,-0.150066 -0.390171,-0.16007 -0.66029,-0.440194 -0.270119,-0.280123 -0.420185,-0.650286 -0.140061,-0.380167 -0.140061,-0.830365 0,-0.460202 0.140061,-0.840369 0.140062,-0.390172 0.420185,-0.660291 0.280123,-0.280123 0.680299,-0.430189 0.410181,-0.16007 0.940414,-0.16007 0.530233,0 0.930409,0.170074 0.400176,0.160071 0.670295,0.450198 0.270119,0.280124 0.41018,0.670295 0.140062,0.380167 0.140062,0.820361 0,0.450198 -0.160071,0.830365 -0.16007,0.370163 -0.450198,0.640282 -0.290127,0.270119 -0.700308,0.430189 -0.41018,0.150066 -0.920404,0.150066 z m -1.060467,-2.00088 q 0,0.790348 0.290128,1.25055 0.300132,0.450198 0.810356,0.450198 0.510225,0 0.820361,-0.480211 0.310136,-0.480211 0.310136,-1.280563 0,-0.800352 -0.290127,-1.290568 -0.290128,-0.50022 -0.830365,-0.50022 -0.540238,0 -0.830366,0.470207 -0.280123,0.470207 -0.280123,1.380607 z"
       style="font-style:normal;font-variant:normal;font-weight:bold;font-stretch:normal;font-family:'Songti SC';-inkscape-font-specification:'Songti SC Bold';stroke-width:0.25011"
       id="path143" />
    <path
       d="m 38.137311,15.266715 q 0.220097,0.03001 0.930409,0.03001 0.720317,0 1.020449,-0.03001 v 0.210092 q -0.230101,0.02001 -0.320141,0.09004 -0.08004,0.06003 0,0.230101 l 1.060467,2.421065 0.66029,-1.34059 -0.34015,-0.880387 q -0.110048,-0.280123 -0.190083,-0.350154 -0.08003,-0.08004 -0.170075,-0.100044 l -0.330145,-0.07003 v -0.210092 q 0.280123,0.03001 1.090479,0.03001 0.810357,0 1.070471,-0.03001 v 0.210092 l -0.280123,0.05002 q -0.25011,0.05002 -0.290128,0.130058 -0.04002,0.08004 0.02001,0.210092 l 0.920405,2.281003 0.860378,-1.970867 q 0.100044,-0.200088 0.01,-0.400176 -0.09004,-0.200088 -0.300132,-0.230101 l -0.410181,-0.07003 v -0.210092 q 0.220097,0.03001 0.84037,0.03001 0.320141,0 0.560246,0 0.25011,-0.01 0.390172,-0.03001 v 0.210092 l -0.25011,0.05002 q -0.310136,0.07003 -0.510224,0.560247 l -1.43063,3.25143 h -0.240105 l -0.880387,-2.110929 -1.040458,2.110929 h -0.260114 l -1.650726,-3.531553 q -0.130058,-0.270119 -0.380168,-0.300132 l -0.16007,-0.03001 z"
       style="font-style:normal;font-variant:normal;font-weight:bold;font-stretch:normal;font-family:'Songti SC';-inkscape-font-specification:'Songti SC Bold';stroke-width:0.25011"
       id="path145" />
    <path
       d="m 47.691202,16.357195 q -0.03001,-0.150066 -0.110048,-0.310137 -0.07003,-0.16007 -0.190084,-0.290127 -0.120052,-0.140062 -0.280123,-0.230102 -0.16007,-0.09004 -0.370163,-0.09004 -0.290127,0 -0.490215,0.120053 -0.200088,0.120052 -0.200088,0.420184 0,0.290128 0.270119,0.450198 0.280123,0.150066 0.780343,0.300132 0.620273,0.200088 0.860378,0.50022 0.240106,0.300132 0.240106,0.700308 0,0.350154 -0.140062,0.610269 -0.130057,0.25011 -0.360158,0.420185 -0.220097,0.16007 -0.520229,0.240105 -0.290128,0.07003 -0.610268,0.07003 -0.360159,0 -0.6803,-0.06003 -0.310136,-0.07003 -0.540237,-0.200088 l -0.100044,-1.190524 h 0.220097 q 0.140061,0.540238 0.450198,0.84037 0.310136,0.290127 0.75033,0.290127 0.32014,0 0.550242,-0.16007 0.230101,-0.170075 0.230101,-0.490216 0,-0.290127 -0.220097,-0.460202 -0.220097,-0.170075 -0.700308,-0.310137 -0.710312,-0.200088 -1.00044,-0.490215 -0.280123,-0.290128 -0.280123,-0.780343 0,-0.270119 0.130057,-0.480212 0.130057,-0.220096 0.34015,-0.360158 0.210092,-0.150066 0.490215,-0.220097 0.280123,-0.08003 0.580255,-0.08003 0.310137,0 0.59026,0.06003 0.280123,0.06003 0.480211,0.18008 l 0.06003,1.00044 z"
       style="font-style:normal;font-variant:normal;font-weight:bold;font-stretch:normal;font-family:'Songti SC';-inkscape-font-specification:'Songti SC Bold';stroke-width:0.25011"
       id="path147" />
    <path
       d="m 53.54706,19.148422 q -0.190084,-0.02001 -0.510224,-0.03001 -0.310137,-0.01 -0.660291,-0.01 -0.350154,0 -0.650286,0.01 -0.300132,0.01 -0.490215,0.03001 v -0.220097 l 0.340149,-0.04002 q 0.220097,-0.03001 0.220097,-0.09004 0,-0.09004 -0.180079,-0.320141 Q 51.446136,18.248026 51.085978,17.777819 50.855876,17.487692 50.715815,17.34763 50.575753,17.207569 50.4557,17.207569 h -0.180079 v 1.240545 q 0,0.25011 0.05002,0.320141 0.06003,0.06003 0.200088,0.09004 l 0.320141,0.07003 v 0.220097 q -0.16007,-0.02001 -0.470207,-0.03001 -0.300132,-0.01 -0.620273,-0.01 -0.32014,0 -0.610268,0.01 -0.290128,0.01 -0.450198,0.03001 v -0.220097 l 0.370163,-0.06003 q 0.180079,-0.03001 0.230101,-0.09004 0.05002,-0.07003 0.05002,-0.330145 V 13.59598 q 0,-0.120053 -0.02001,-0.190083 -0.02001,-0.07003 -0.09004,-0.110049 -0.06003,-0.05002 -0.18008,-0.08003 -0.120052,-0.03001 -0.330145,-0.06003 v -0.200088 q 0.130057,-0.03001 0.310137,-0.07003 0.180079,-0.04002 0.370162,-0.09004 0.200088,-0.06003 0.380168,-0.130057 0.190083,-0.07003 0.330145,-0.16007 h 0.16007 v 4.41194 q 0.200088,0 0.370163,-0.110048 0.180079,-0.120053 0.510224,-0.390172 0.34015,-0.270119 0.470207,-0.400176 0.130057,-0.130057 0.130057,-0.220097 0,-0.200088 -0.640281,-0.300132 v -0.200088 h 2.090919 v 0.200088 q -0.730321,0.08003 -1.240545,0.530233 l -0.730321,0.600264 q 0.210092,0.260115 0.460202,0.610269 0.260114,0.340149 0.520229,0.670295 0.270119,0.32014 0.510224,0.580255 0.25011,0.25011 0.430189,0.320141 0.05002,0.03001 0.100044,0.04002 0.05002,0.01 0.09004,0.03001 l 0.200088,0.05002 z"
       style="font-style:normal;font-variant:normal;font-weight:bold;font-stretch:normal;font-family:'Songti SC';-inkscape-font-specification:'Songti SC Bold';stroke-width:0.25011"
       id="path149" />
    <path
       d="m 54.928604,12.995716 q 0.230101,0 0.390172,0.170075 0.170075,0.16007 0.170075,0.390172 0,0.200088 -0.170075,0.370162 -0.170075,0.160071 -0.400176,0.160071 -0.230101,0 -0.380167,-0.150066 -0.150066,-0.160071 -0.150066,-0.380167 0,-0.230102 0.16007,-0.390172 0.16007,-0.170075 0.380167,-0.170075 z m 1.050462,6.152706 q -0.16007,-0.02001 -0.460202,-0.03001 -0.300132,-0.01 -0.700308,-0.01 -0.400176,0 -0.700308,0.01 -0.300132,0.01 -0.460203,0.03001 v -0.220097 l 0.450198,-0.100044 q 0.310137,-0.06003 0.310137,-0.370162 v -1.880828 q 0,-0.240105 -0.120053,-0.350154 -0.120053,-0.110048 -0.480211,-0.190083 v -0.200088 q 0.180079,-0.04002 0.370163,-0.110049 0.190083,-0.08004 0.370162,-0.170074 0.18008,-0.100044 0.330146,-0.210093 0.150066,-0.110048 0.240105,-0.240105 0.06003,0 0.110049,0.01 0.06003,0 0.110048,0 v 3.371483 q 0,0.150066 0.04002,0.230101 0.05002,0.07003 0.180079,0.100044 l 0.41018,0.110048 z"
       style="font-style:normal;font-variant:normal;font-weight:bold;font-stretch:normal;font-family:'Songti SC';-inkscape-font-specification:'Songti SC Bold';stroke-width:0.25011"
       id="path151" />
  </g>
</svg>
